<?xml version="1.0"?>
<svg width="110" height="135" xmlns="http://www.w3.org/2000/svg" xmlns:svg="http://www.w3.org/2000/svg" version="1.1">
 <g class="layer">
  <title>Layer 1</title>
  <path d="m72.06,18l-37.5,0c-8.62,0 -15.62,7 -15.62,15.63l0,68.75c0,8.62 7,15.62 15.62,15.62l37.5,0c4.14,0 8.13,-1.65 11.05,-4.58c2.94,-2.93 4.58,-6.9 4.58,-11.05l0,-43.75c0,-1.72 -1.41,-3.12 -3.13,-3.12s-3.12,1.4 -3.12,3.12l0,43.75c0,2.49 -0.99,4.88 -2.75,6.63c-1.75,1.76 -4.14,2.75 -6.63,2.75l-37.5,0c-5.17,0 -9.37,-4.2 -9.37,-9.38l0,-68.75c0,-5.17 4.2,-9.37 9.37,-9.37l37.5,0c1.72,0 3.13,-1.4 3.13,-3.13s-1.41,-3.12 -3.13,-3.12zm-37.5,78.13l37.5,0c1.72,0 3.13,-1.4 3.13,-3.13s-1.41,-3.12 -3.13,-3.12l-37.5,0c-1.72,0 -3.12,1.39 -3.12,3.12s1.4,3.13 3.12,3.13zm0,-12.5l37.5,0c1.72,0 3.13,-1.4 3.13,-3.13s-1.41,-3.12 -3.13,-3.12l-37.5,0c-1.72,0 -3.12,1.39 -3.12,3.12s1.4,3.13 3.12,3.13zm0,-12.5l23.44,0c1.72,0 3.13,-1.4 3.13,-3.13s-1.41,-3.12 -3.13,-3.12l-23.44,0c-1.72,0 -3.12,1.39 -3.12,3.12s1.4,3.13 3.12,3.13zm35.78,-40.03c-0.42,-1.29 -1.61,-2.16 -2.97,-2.16s-2.54,0.87 -2.96,2.16l-3.74,11.45l-11.45,3.73c-1.28,0.42 -2.16,1.62 -2.16,2.97s0.88,2.56 2.16,2.97l11.45,3.73l3.74,11.45c0.42,1.29 1.6,2.16 2.96,2.16s2.55,-0.87 2.97,-2.16l3.74,-11.45l11.45,-3.73c1.28,-0.41 2.16,-1.62 2.16,-2.97s-0.88,-2.55 -2.16,-2.97l-11.45,-3.72l-3.74,-11.46zm-35.78,27.53l9.38,0c1.72,0 3.12,-1.4 3.12,-3.13s-1.4,-3.12 -3.12,-3.12l-9.38,0c-1.72,0 -3.12,1.39 -3.12,3.12s1.4,3.13 3.12,3.13zm32.81,-16.46l1.25,3.83c0.32,0.95 1.05,1.7 2,2l3.83,1.25l-3.83,1.25c-0.95,0.3 -1.68,1.05 -2,2l-1.25,3.83l-1.25,-3.83c-0.29,-0.95 -1.04,-1.7 -2,-2l-3.82,-1.25l3.82,-1.25c0.96,-0.3 1.71,-1.05 2,-2l1.25,-3.83zm-32.81,3.96l9.38,0c1.72,0 3.12,-1.4 3.12,-3.13s-1.4,-3.12 -3.12,-3.12l-9.38,0c-1.72,0 -3.12,1.39 -3.12,3.12s1.4,3.13 3.12,3.13zm54.53,-25.97c-0.42,-1.29 -1.61,-2.16 -2.97,-2.16s-2.54,0.87 -2.96,2.16l-1.43,4.38l-4.39,1.42c-1.28,0.42 -2.15,1.63 -2.15,2.98s0.87,2.55 2.15,2.97l4.39,1.43l1.43,4.37c0.42,1.29 1.6,2.17 2.96,2.17s2.55,-0.88 2.97,-2.17l1.42,-4.37l4.4,-1.43c1.28,-0.42 2.15,-1.62 2.15,-2.97s-0.87,-2.56 -2.15,-2.98l-4.4,-1.42l-1.42,-4.38z" fill-rule="evenodd" id="svg_1"/>
 </g>
</svg>